<svg width="56" height="61" viewBox="0 0 56 61" fill="none" xmlns="http://www.w3.org/2000/svg">
<path fill-rule="evenodd" clip-rule="evenodd" d="M10.461 45.325C10.514 45.3338 10.5676 45.3382 10.6213 45.3382C10.8632 45.3377 11.0962 45.2421 11.2741 45.0703C11.452 44.8985 11.5618 44.663 11.5818 44.4103C11.6018 44.1577 11.5306 43.9065 11.3822 43.7062C11.2339 43.506 11.0192 43.3715 10.7806 43.3292C8.22853 42.88 5.92117 41.469 4.29279 39.3618C2.66442 37.2546 1.82734 34.5964 1.93912 31.8877C2.05089 29.1789 3.10381 26.6064 4.89969 24.6543C6.69557 22.7021 9.11056 21.505 11.6901 21.2883C11.8764 21.2728 12.0543 21.2009 12.2024 21.0815C12.3505 20.9621 12.4623 20.8003 12.5243 20.6156C13.6499 17.2549 15.7429 14.3428 18.5148 12.281C21.2867 10.2192 24.6009 9.10915 28.0004 9.10405C30.1553 9.09924 32.2896 9.54398 34.2788 10.4123C36.268 11.2807 38.0723 12.5553 39.5864 14.1618V25.289C39.5864 25.5573 39.6881 25.8146 39.8692 26.0043C40.0503 26.194 40.2958 26.3006 40.5519 26.3006H54.069C54.325 26.3006 54.5706 26.194 54.7517 26.0043C54.9327 25.8146 55.0345 25.5573 55.0345 25.289V14.1618C55.0345 13.8936 54.9327 13.6363 54.7517 13.4466C54.5706 13.2569 54.325 13.1503 54.069 13.1503C53.8129 13.1503 53.5673 13.2569 53.3862 13.4466C53.2052 13.6363 53.1035 13.8936 53.1035 14.1618V24.2775H41.5174V6.06937H53.1035V10.1156C53.1035 10.3839 53.2052 10.6412 53.3862 10.8309C53.5673 11.0206 53.8129 11.1272 54.069 11.1272C54.325 11.1272 54.5706 11.0206 54.7517 10.8309C54.9327 10.6412 55.0345 10.3839 55.0345 10.1156V5.05781C55.0345 4.78952 54.9327 4.53223 54.7517 4.34252C54.5706 4.15282 54.325 4.04624 54.069 4.04624H51.1725V1.01156C51.1725 0.743279 51.0707 0.485985 50.8897 0.29628C50.7086 0.106575 50.463 0 50.2069 0H44.4139C44.1579 0 43.9123 0.106575 43.7312 0.29628C43.5501 0.485985 43.4484 0.743279 43.4484 1.01156V4.04624H40.5519C40.2958 4.04624 40.0503 4.15282 39.8692 4.34252C39.6881 4.53223 39.5864 4.78952 39.5864 5.05781V11.4367C36.3281 8.61232 32.2293 7.07136 28.0004 7.08092C24.306 7.0864 20.6992 8.25945 17.6513 10.4468C14.6035 12.6341 12.2563 15.7339 10.9167 19.341C7.93703 19.7486 5.19606 21.2636 3.19283 23.6104C1.18961 25.9571 0.057326 28.9795 0.00211825 32.1273C-0.0530894 35.2751 0.972448 38.339 2.89203 40.7613C4.81162 43.1835 7.49761 44.8031 10.461 45.325ZM45.3794 2.02312H49.2414V4.04624H45.3794V2.02312ZM56 33.8873C55.9998 32.1724 55.6478 30.4775 54.9679 28.9175C54.9155 28.7964 54.8409 28.6874 54.7483 28.5965C54.6557 28.5056 54.5469 28.4347 54.4281 28.3879C54.3094 28.3411 54.183 28.3192 54.0562 28.3236C53.9294 28.3279 53.8046 28.3584 53.6891 28.4133C53.5735 28.4681 53.4694 28.5463 53.3826 28.6433C53.2959 28.7403 53.2282 28.8543 53.1836 28.9787C53.1389 29.1032 53.118 29.2356 53.1222 29.3684C53.1263 29.5013 53.1554 29.632 53.2078 29.7531C53.7744 31.0506 54.0681 32.4605 54.069 33.8873C54.0702 35.877 53.511 37.8227 52.4615 39.4809C51.412 41.1391 49.9188 42.4359 48.1689 43.209C46.4191 43.9821 44.4904 44.197 42.6245 43.8268C40.7587 43.4567 39.0385 42.5179 37.6796 41.1281C37.5263 40.9715 37.3277 40.8727 37.115 40.8472C36.9023 40.8218 36.6876 40.8711 36.5045 40.9875C34.2218 42.4439 31.6338 43.2934 28.9659 43.4618V39.4509C28.9659 39.1826 28.8642 38.9253 28.6831 38.7356C28.502 38.5459 28.2565 38.4394 28.0004 38.4394C27.7443 38.4394 27.4987 38.5459 27.3177 38.7356C27.1366 38.9253 27.0349 39.1826 27.0349 39.4509V49.5665C27.0349 49.8348 27.1366 50.0921 27.3177 50.2818C27.4987 50.4715 27.7443 50.5781 28.0004 50.5781H30.9548L21.2419 58.4055L9.27927 48.7654C9.07593 48.6097 8.82257 48.5434 8.57325 48.5807C8.32392 48.6179 8.09836 48.7558 7.94468 48.9648C7.791 49.1739 7.72137 49.4376 7.75064 49.6997C7.77991 49.9617 7.90577 50.2015 8.10136 50.3677L20.6529 60.4833C20.8217 60.6195 21.0288 60.6933 21.2419 60.6933C21.4549 60.6933 21.662 60.6195 21.8308 60.4833L34.3824 50.3677C34.542 50.2388 34.6591 50.0608 34.7173 49.8587C34.7755 49.6565 34.7718 49.4404 34.7069 49.2405C34.642 49.0407 34.519 48.8671 34.3552 48.7442C34.1913 48.6212 33.9949 48.5551 33.7934 48.555H28.9659V45.4879C31.742 45.3322 34.4477 44.5154 36.8772 43.0996C38.5586 44.6117 40.6188 45.5867 42.8133 45.9087C45.0077 46.2308 47.2443 45.8864 49.2575 44.9166C51.2708 43.9467 52.9762 42.392 54.1713 40.437C55.3664 38.4821 56.0011 36.2089 56 33.8873ZM35.1822 38.2564C35.0196 38.1371 34.8961 37.9682 34.8284 37.7727C34.7608 37.5772 34.7523 37.3646 34.8041 37.1639C34.856 36.9631 34.9656 36.784 35.1181 36.6509L40.4969 31.9451C40.4056 31.4942 40.1696 31.0897 39.8283 30.7989C39.4869 30.5081 39.0609 30.3486 38.6209 30.3468C38.3352 30.3494 38.053 30.4137 37.7922 30.5359C37.5313 30.6581 37.2974 30.8355 37.1051 31.057C36.9589 31.2175 36.847 31.4087 36.7768 31.618C36.7065 31.8273 36.6796 32.0498 36.6976 32.2708C36.7232 32.5378 36.6466 32.8044 36.4845 33.0122C36.3225 33.2199 36.0883 33.3517 35.8335 33.3785C35.5787 33.4053 35.3242 33.325 35.1259 33.1552C34.9277 32.9854 34.8019 32.7401 34.7763 32.4732C34.7291 31.9698 34.7845 31.4618 34.9388 30.9826C35.0931 30.5033 35.3428 30.0639 35.6713 29.6934C36.0466 29.2648 36.5023 28.922 37.0098 28.6863C37.5173 28.4506 38.0658 28.3272 38.6209 28.3237C39.621 28.3271 40.5808 28.7367 41.2984 29.4665C42.016 30.1963 42.4355 31.1892 42.4685 32.2364C42.4913 32.4053 42.4728 32.5774 42.4147 32.7366C42.3566 32.8959 42.2608 33.037 42.1363 33.1468L38.3998 36.4162H41.5174C41.7735 36.4162 42.0191 36.5228 42.2001 36.7125C42.3812 36.9022 42.4829 37.1595 42.4829 37.4278C42.4829 37.6961 42.3812 37.9533 42.2001 38.1431C42.0191 38.3328 41.7735 38.4393 41.5174 38.4393H35.737C35.5385 38.4395 35.3448 38.3756 35.1822 38.2564ZM28.9659 34.3931C30.2457 34.3915 31.4728 33.8581 32.3778 32.9099C33.2828 31.9617 33.7919 30.6762 33.7934 29.3353V25.289C33.7934 23.9476 33.2848 22.6611 32.3795 21.7126C31.4741 20.7641 30.2462 20.2312 28.9659 20.2312C27.6855 20.2312 26.4576 20.7641 25.5523 21.7126C24.647 22.6611 24.1384 23.9476 24.1384 25.289V29.3353C24.1399 30.6762 24.649 31.9617 25.554 32.9099C26.459 33.8581 27.686 34.3915 28.9659 34.3931ZM26.0694 25.289C26.0694 24.4842 26.3745 23.7123 26.9177 23.1432C27.4609 22.5741 28.1977 22.2543 28.9659 22.2543C29.7341 22.2543 30.4708 22.5741 31.014 23.1432C31.5572 23.7123 31.8624 24.4842 31.8624 25.289V29.3353C31.8624 30.1401 31.5572 30.912 31.014 31.4811C30.4708 32.0502 29.7341 32.3699 28.9659 32.3699C28.1977 32.3699 27.4609 32.0502 26.9177 31.4811C26.3745 30.912 26.0694 30.1401 26.0694 29.3353V25.289ZM19.428 23.1432C18.8848 22.5741 18.148 22.2543 17.3798 22.2543C16.6116 22.2543 15.8749 22.5741 15.3317 23.1432C14.7885 23.7123 14.4833 24.4842 14.4833 25.289V29.3353C14.4833 30.1401 14.7885 30.912 15.3317 31.4811C15.8749 32.0502 16.6116 32.3699 17.3798 32.3699C18.148 32.3699 18.8848 32.0502 19.428 31.4811C19.9712 30.912 20.2764 30.1401 20.2764 29.3353C20.2764 29.067 20.3781 28.8097 20.5591 28.62C20.7402 28.4303 20.9858 28.3237 21.2419 28.3237C21.4979 28.3237 21.7435 28.4303 21.9246 28.62C22.1056 28.8097 22.2074 29.067 22.2074 29.3353C22.2074 30.6767 21.6987 31.9631 20.7934 32.9117C19.8881 33.8602 18.6602 34.3931 17.3798 34.3931C16.0995 34.3931 14.8716 33.8602 13.9663 32.9117C13.0609 31.9631 12.5523 30.6767 12.5523 29.3353V25.289C12.5523 23.9476 13.0609 22.6611 13.9663 21.7126C14.8716 20.7641 16.0995 20.2312 17.3798 20.2312C18.6602 20.2312 19.8881 20.7641 20.7934 21.7126C21.6987 22.6611 22.2074 23.9476 22.2074 25.289C22.2074 25.5573 22.1056 25.8146 21.9246 26.0043C21.7435 26.194 21.4979 26.3006 21.2419 26.3006C20.9858 26.3006 20.7402 26.194 20.5591 26.0043C20.3781 25.8146 20.2764 25.5573 20.2764 25.289C20.2764 24.4842 19.9712 23.7123 19.428 23.1432ZM14.4833 50.5781C14.7394 50.5781 14.985 50.4715 15.166 50.2818C15.3471 50.0921 15.4488 49.8348 15.4488 49.5665V40.4624H24.1384C24.3944 40.4624 24.64 40.3559 24.8211 40.1662C25.0021 39.9765 25.1039 39.7192 25.1039 39.4509C25.1039 39.1826 25.0021 38.9253 24.8211 38.7356C24.64 38.5459 24.3944 38.4393 24.1384 38.4393H14.4833C14.2273 38.4393 13.9817 38.5459 13.8006 38.7356C13.6195 38.9253 13.5178 39.1826 13.5178 39.4509V49.5665C13.5178 49.8348 13.6195 50.0921 13.8006 50.2818C13.9817 50.4715 14.2273 50.5781 14.4833 50.5781ZM47.2424 20.2343C47.1159 20.2249 46.9923 20.1895 46.8789 20.1301C46.7647 20.0708 46.6629 19.9884 46.5793 19.8876C46.4958 19.7869 46.432 19.6698 46.3918 19.5432C46.3516 19.4165 46.3357 19.2828 46.3451 19.1496C46.3544 19.0165 46.3888 18.8866 46.4463 18.7675L47.6793 16.185H45.3794C45.2153 16.1842 45.054 16.1396 44.9108 16.0553C44.7677 15.971 44.6474 15.8499 44.5614 15.7034C44.4754 15.5569 44.4265 15.3898 44.4192 15.2179C44.412 15.0461 44.4468 14.8751 44.5201 14.7213L46.4512 10.675C46.5078 10.5561 46.5863 10.4501 46.6821 10.363C46.7779 10.2759 46.8891 10.2094 47.0094 10.1673C47.1297 10.1252 47.2568 10.1084 47.3833 10.1177C47.5098 10.1271 47.6334 10.1625 47.7469 10.2218C47.8603 10.2812 47.9615 10.3634 48.0447 10.4638C48.1278 10.5642 48.1913 10.6807 48.2315 10.8067C48.2716 10.9328 48.2877 11.0659 48.2788 11.1985C48.2699 11.331 48.2361 11.4605 48.1794 11.5794L46.9416 14.1619H49.2415C49.4067 14.1614 49.5693 14.2053 49.7137 14.2895C49.8582 14.3736 49.9795 14.4953 50.0662 14.6426C50.153 14.79 50.2021 14.9583 50.209 15.1313C50.2159 15.3043 50.1803 15.4762 50.1056 15.6307L48.1746 19.6769C48.1179 19.7958 48.0395 19.9019 47.9437 19.9891C47.8479 20.0762 47.7367 20.1427 47.6164 20.1848C47.496 20.2269 47.369 20.2437 47.2424 20.2343Z" fill="url(#paint0_linear_18_85)"/>
<defs>
<linearGradient id="paint0_linear_18_85" x1="-3.94366" y1="1.11552e-07" x2="63.5795" y2="55.2914" gradientUnits="userSpaceOnUse">
<stop offset="0.318508" stop-color="#E7A14F"/>
<stop offset="0.595889" stop-color="#9FA594"/>
<stop offset="0.930737" stop-color="#12A7B5"/>
</linearGradient>
</defs>
</svg>
