<svg width="895" height="782" viewBox="0 0 895 782" fill="none" xmlns="http://www.w3.org/2000/svg">
<path d="M0 0.5L895 184L895 681L2.03053e-05 425.499L0 0.5Z" fill="url(#paint0_linear_164_78)"/>
<g opacity="0.07">
<path fill-rule="evenodd" clip-rule="evenodd" d="M1078.18 461.839C1114.52 500.338 1114.19 562.418 1077.44 600.494C1040.7 638.564 981.446 638.215 945.102 599.722C942.09 596.527 939.332 593.174 936.823 589.681C938.151 586.949 938.565 583.717 937.767 580.513C936.032 573.575 929.266 569.433 922.649 571.251C916.031 573.066 912.072 580.154 913.806 587.09C914.88 591.384 917.888 594.61 921.593 596.011C925.169 601.419 929.242 606.575 933.815 611.42C976.323 656.457 1045.63 656.86 1088.61 612.328C1131.6 567.79 1131.99 495.176 1089.48 450.142C1032.53 389.806 926.735 413.727 914.482 500.508L797.537 503.175C793.409 497.765 785.947 496.448 780.322 500.337C774.362 504.458 772.718 512.864 776.652 519.108C780.585 525.353 788.608 527.075 794.568 522.954C796.979 521.288 798.682 518.922 799.597 516.282L924.652 512.76C937.814 428.839 1026.39 406.968 1078.19 461.84L1078.18 461.839ZM790.307 508.889C788.84 506.56 785.849 505.916 783.624 507.455C781.401 508.992 780.787 512.126 782.255 514.456C783.722 516.785 786.715 517.428 788.938 515.891C791.161 514.354 791.774 511.218 790.307 508.889ZM930.064 582.624C929.444 580.148 927.029 578.668 924.663 579.315C922.299 579.97 920.888 582.497 921.505 584.973C922.126 587.451 924.545 588.931 926.904 588.284C929.268 587.635 930.681 585.101 930.064 582.624Z" fill="#9FA594"/>
<path fill-rule="evenodd" clip-rule="evenodd" d="M1059.84 480.854C1086.15 508.736 1085.91 553.696 1059.3 581.269C1032.78 608.736 990.085 608.585 963.748 581.012C964.467 579.067 964.633 576.872 964.085 574.698C962.716 569.209 957.356 565.921 952.118 567.364C946.872 568.801 943.741 574.412 945.117 579.907C946.199 584.23 949.752 587.182 953.773 587.541C954.263 588.092 954.768 588.639 955.274 589.176C986.067 621.793 1036.26 622.09 1067.39 589.836C1098.52 557.58 1098.8 504.996 1068.02 472.374C1025.58 427.421 947.942 447.718 937.181 524.665L849.939 526.619C845.859 520.967 838.236 519.536 832.511 523.494C826.551 527.615 824.906 536.019 828.84 542.265C832.774 548.51 840.797 550.232 846.757 546.111C849.072 544.511 850.735 542.265 851.674 539.751C894.992 538.482 898.644 538.289 947.542 536.904C943.829 471.83 1016.02 433.864 1059.84 480.855L1059.84 480.854ZM842.851 531.828C841.384 529.499 838.391 528.857 836.168 530.394C833.945 531.931 833.332 535.067 834.799 537.396C836.266 539.725 839.259 540.367 841.482 538.83C843.705 537.293 844.318 534.158 842.851 531.828ZM957.992 576.371C957.502 574.411 955.588 573.241 953.715 573.752C951.842 574.265 950.721 576.273 951.213 578.235C951.702 580.193 953.617 581.366 955.49 580.855C957.359 580.341 958.479 578.333 957.991 576.372L957.992 576.371Z" fill="#9FA594"/>
<path fill-rule="evenodd" clip-rule="evenodd" d="M1113.97 421.423C1042.14 345.319 919.12 367.371 882.704 478.365L750.848 481.21L750.613 480.82C741.244 465.946 719.658 480.87 729.027 495.745C733.751 503.245 746.926 503.554 751.347 494.427C751.579 494.43 751.815 494.428 752.056 494.423L897.706 490.395C923.726 398.068 1034.06 368.256 1098.94 436.996C1147.31 488.239 1146.87 570.874 1097.95 621.552C1049.04 672.228 970.174 671.766 921.803 620.52C915.067 613.383 909.28 605.631 904.437 597.443C906.488 593.648 907.186 589.038 906.046 584.48C903.723 575.192 894.664 569.642 885.8 572.075C876.931 574.506 871.636 583.997 873.956 593.287C875.377 598.97 879.322 603.253 884.201 605.168C890.299 616.199 897.819 626.608 906.768 636.091C963.351 696.037 1055.6 696.579 1112.82 637.301C1170.04 578.023 1170.55 481.366 1113.97 421.423ZM742.906 485.646C741.439 483.317 738.447 482.673 736.223 484.211C734 485.748 733.386 488.882 734.854 491.213C736.321 493.542 739.314 494.184 741.537 492.647C743.76 491.11 744.373 487.975 742.906 485.646ZM895.728 587.31C894.902 583.996 891.661 582.012 888.496 582.88C885.333 583.752 883.44 587.142 884.269 590.454C885.102 593.772 888.335 595.756 891.5 594.887C894.666 594.02 896.561 590.628 895.728 587.31Z" fill="#9FA594"/>
</g>
<defs>
<linearGradient id="paint0_linear_164_78" x1="447.5" y1="66" x2="447.5" y2="511" gradientUnits="userSpaceOnUse">
<stop offset="0.156063" stop-color="white"/>
<stop offset="1" stop-color="#F7F7F7"/>
</linearGradient>
</defs>
</svg>
