<svg width="170" height="41" viewBox="0 0 170 41" fill="none" xmlns="http://www.w3.org/2000/svg">
<path fill-rule="evenodd" clip-rule="evenodd" d="M17.1256 6.29046C11.757 5.17049 6.5383 8.82311 5.46933 14.448C4.40072 20.0723 7.88685 25.54 13.2551 26.6605C13.7004 26.753 14.1442 26.8128 14.5853 26.8415C14.7384 26.5591 14.9869 26.3323 15.3038 26.2192C15.9904 25.9752 16.7347 26.3602 16.9673 27.0792C17.2003 27.7979 16.8331 28.5781 16.1467 28.8222C15.7217 28.9732 15.2741 28.8828 14.9398 28.6214C14.2748 28.6056 13.6021 28.5293 12.9266 28.3883C6.64654 27.0786 2.56936 20.6832 3.81927 14.104C5.06937 7.52402 11.1739 3.25215 17.4536 4.56188C25.867 6.31667 30.0205 17.5108 23.4129 23.7084L30.0104 34.6955C30.7077 34.7622 31.2541 35.3765 31.2541 36.1244C31.2541 36.9169 30.6408 37.5595 29.8844 37.5595C29.128 37.5595 28.5146 36.9169 28.5146 36.1244C28.5146 35.8039 28.6149 35.5082 28.7842 35.2694L21.7858 23.4813C28.0991 17.3663 24.7768 7.88607 17.1252 6.29008L17.1256 6.29046ZM29.95 35.6985C30.2321 35.6985 30.4609 35.938 30.4609 36.2338C30.4609 36.5294 30.2323 36.7691 29.95 36.7691C29.6679 36.7691 29.4391 36.5294 29.4391 36.2338C29.4391 35.9382 29.6679 35.6985 29.95 35.6985ZM15.5751 27.0558C15.8202 26.9688 16.086 27.1061 16.1694 27.363C16.2521 27.6201 16.1212 27.8982 15.8762 27.9856C15.6309 28.0726 15.3649 27.9349 15.2819 27.6787C15.1987 27.4218 15.3301 27.1432 15.5751 27.0558Z" fill="#12A7B5"/>
<path fill-rule="evenodd" clip-rule="evenodd" d="M16.5914 9.09911C12.7035 8.2882 8.92387 10.9333 8.15006 15.007C7.37933 19.0654 9.88297 23.0111 13.746 23.842C13.8682 23.6619 14.0437 23.5185 14.2591 23.4423C14.8021 23.2489 15.3923 23.5536 15.5761 24.1229C15.7609 24.6926 15.4701 25.3099 14.9261 25.5031C14.4983 25.6551 14.0419 25.4982 13.777 25.1468C13.702 25.1335 13.6264 25.1186 13.5515 25.1031C9.00292 24.1539 6.04983 19.5226 6.95508 14.7574C7.8607 9.99227 12.2811 6.89831 16.8298 7.84675C23.0985 9.15458 25.9152 17.5296 20.0504 23.0153L24.9751 31.2097C25.69 31.2579 26.2555 31.8804 26.2555 32.6416C26.2555 33.4341 25.6423 34.0767 24.8858 34.0767C24.1294 34.0767 23.516 33.4341 23.516 32.6416C23.516 32.3338 23.6085 32.0487 23.7658 31.8151C21.3458 27.729 21.1491 27.3795 18.4132 22.7697C24.1207 19.3173 23.1128 10.4162 16.5912 9.09892L16.5914 9.09911ZM24.949 32.1701C25.2311 32.1701 25.4599 32.4098 25.4599 32.7054C25.4599 33.001 25.2311 33.2407 24.949 33.2407C24.6669 33.2407 24.4381 33.001 24.4381 32.7054C24.4381 32.4098 24.6669 32.1701 24.949 32.1701ZM14.4734 24.1043C14.6674 24.0353 14.8777 24.1444 14.9439 24.3476C15.0099 24.5511 14.9058 24.772 14.7117 24.8409C14.5178 24.9099 14.3072 24.8009 14.241 24.5976C14.1754 24.3945 14.2794 24.1736 14.4734 24.1045V24.1043Z" fill="#FAA112"/>
<path fill-rule="evenodd" clip-rule="evenodd" d="M18.448 0.617876C29.0599 2.83102 34.3762 15.5117 27.1352 25.3599L34.5876 37.7384L34.6342 37.7374C36.4358 37.7374 36.4358 40.6075 34.6342 40.6075C33.7256 40.6075 32.931 39.4052 33.4432 38.4633C33.4294 38.442 33.4158 38.42 33.4022 38.3974L25.2449 24.6723C31.5173 16.876 27.5959 4.91747 18.0107 2.9184C10.8653 1.42822 3.91823 6.28951 2.49589 13.7767C1.07337 21.2634 5.7135 28.5412 12.8595 30.0318C13.8546 30.2392 14.8464 30.323 15.8198 30.2939C16.0203 29.8825 16.3686 29.5489 16.8197 29.3886C17.7389 29.0619 18.7357 29.5772 19.0476 30.5401C19.3598 31.5034 18.8679 32.5475 17.9487 32.8746C17.3863 33.0745 16.7947 32.959 16.3485 32.6188C15.0619 32.6976 13.7449 32.6083 12.4227 32.3327C4.06363 30.5891 -1.36409 22.0764 0.299926 13.3189C1.96358 4.56112 10.0891 -1.12571 18.448 0.617876ZM34.6766 38.7328C34.9587 38.7328 35.1875 38.9723 35.1875 39.2681C35.1875 39.5637 34.9589 39.8034 34.6766 39.8034C34.3945 39.8034 34.1657 39.5637 34.1657 39.2681C34.1657 38.9725 34.3945 38.7328 34.6766 38.7328ZM17.1828 30.5093C17.5106 30.3925 17.8671 30.577 17.9786 30.9208C18.0895 31.2646 17.9139 31.6377 17.5861 31.7541C17.2575 31.8705 16.9015 31.6869 16.7901 31.343C16.6786 30.9992 16.8543 30.6258 17.1828 30.5093Z" fill="#105D6B"/>
<path d="M52.5915 31.7813C52.5915 32.0041 52.5117 32.1992 52.3522 32.3663C52.1926 32.5335 52.0066 32.6171 51.7938 32.6171H47.3273C47.1146 32.6171 46.9284 32.5335 46.7689 32.3663C46.6094 32.1921 46.5296 31.9972 46.5296 31.7744V30.7646C45.4396 31.5794 44.4027 32.1435 43.4189 32.4638C42.4352 32.7911 41.3053 32.9514 40.0293 32.9514C38.5935 32.9514 37.4172 32.7006 36.5 32.1994C35.5828 31.6981 34.8648 31.0224 34.3464 30.1729C33.8281 29.3235 33.4691 28.3205 33.2697 27.1646C33.0702 26.0088 32.9705 24.7762 32.9705 23.4668V9.55348C32.9705 9.33067 33.0568 9.12875 33.2298 8.94772C33.4026 8.76669 33.5955 8.67609 33.808 8.67609H38.6334C38.8461 8.67609 39.0323 8.7665 39.1918 8.94772C39.3514 9.12875 39.4311 9.33086 39.4311 9.55348V23.4321C39.4311 24.1563 39.471 24.7691 39.5508 25.2704C39.6306 25.7649 39.7767 26.1687 39.9894 26.4753C40.202 26.7817 40.5012 26.9975 40.8867 27.1229C41.2721 27.2482 41.7707 27.3109 42.3821 27.3109C42.9669 27.3109 43.5652 27.1855 44.1766 26.9348C44.788 26.6841 45.4394 26.3638 46.1307 25.9738V9.55348C46.1307 9.33067 46.2105 9.12875 46.37 8.94772C46.5296 8.76669 46.7156 8.67609 46.9284 8.67609H51.7539C51.9665 8.67609 52.1593 8.7665 52.3321 8.94772C52.5048 9.12875 52.5913 9.33086 52.5913 9.55348V31.7817L52.5915 31.7813Z" fill="#105D6B"/>
<path d="M72.5973 31.7395C72.5973 31.9623 72.5176 32.1574 72.358 32.3245C72.1985 32.4917 72.0125 32.5753 71.7996 32.5753H67.3332C67.1205 32.5753 66.9343 32.4917 66.7747 32.3245C66.6152 32.1574 66.5354 31.9625 66.5354 31.7395V31.071C65.7643 31.6561 64.9468 32.1156 64.0827 32.4499C63.2186 32.784 62.1885 32.9512 60.992 32.9512C60.1147 32.9512 59.2705 32.8328 58.4597 32.596C57.6489 32.3593 56.9243 31.9623 56.2863 31.4051C55.6482 30.848 55.1364 30.1098 54.7508 29.1909C54.3653 28.2717 54.1726 27.1295 54.1726 25.7647V25.3886C54.1726 22.9374 54.9502 21.1476 56.5056 20.0195C58.0609 18.8914 60.5534 18.3272 63.983 18.3272H66.1365V16.823C66.1365 15.6251 65.8706 14.8454 65.339 14.4831C64.8072 14.1211 64.0762 13.9401 63.1456 13.9401C62.5076 13.9401 61.8627 13.9471 61.2114 13.9609C60.56 13.975 59.9352 13.9957 59.3371 14.0236C58.739 14.0514 58.2005 14.0863 57.722 14.1281C57.2435 14.1699 56.8447 14.2048 56.5256 14.2326H56.3261C56.1135 14.2326 55.9407 14.1769 55.8076 14.0654C55.6747 13.9539 55.6082 13.759 55.6082 13.4804V10.096C55.6082 9.62241 55.8607 9.31602 56.3659 9.17678C57.1103 8.9817 58.114 8.7868 59.3768 8.59172C60.6396 8.39683 61.9357 8.29919 63.265 8.29919C64.7008 8.29919 65.9968 8.45933 67.1533 8.77978C68.3098 9.10004 69.2869 9.60152 70.0845 10.284C70.882 10.9665 71.5003 11.8439 71.9388 12.9162C72.3776 13.9887 72.597 15.2908 72.597 16.8228V31.7391L72.5973 31.7395ZM66.2564 22.3385H63.9832C62.6007 22.3385 61.6703 22.5892 61.1916 23.0905C60.713 23.5918 60.4739 24.3579 60.4739 25.3886V25.7647C60.4739 26.6561 60.68 27.2271 61.0919 27.4778C61.504 27.7286 62.1355 27.854 62.9862 27.854C63.5977 27.854 64.1759 27.7635 64.7209 27.5823C65.2659 27.4013 65.7777 27.1853 66.2564 26.9348V22.3387V22.3385Z" fill="#105D6B"/>
<path d="M93.9989 30.6531C93.9989 30.9872 93.9257 31.2382 93.7796 31.4051C93.6334 31.5723 93.2944 31.7256 92.7626 31.8648C91.6193 32.1712 90.3034 32.429 88.8145 32.6377C87.3257 32.8467 85.8103 32.9512 84.2681 32.9512C81.0246 32.9512 78.5454 32.0181 76.8306 30.1518C75.1159 28.2855 74.2585 25.6533 74.2585 22.2551V18.996C74.2585 15.7093 75.0827 13.1048 76.7309 11.1829C78.3794 9.26092 80.8917 8.29995 84.2681 8.29995C84.667 8.29995 85.1654 8.32768 85.7635 8.38353C86.3618 8.43919 86.9533 8.5089 87.5381 8.59248V1.14554C87.5381 0.922727 87.6181 0.727644 87.7775 0.560675C87.937 0.393516 88.123 0.309937 88.3357 0.309937H93.1611C93.3738 0.309937 93.5665 0.393706 93.7393 0.560675C93.9121 0.727834 93.9986 0.922916 93.9986 1.14554V30.6535L93.9989 30.6531ZM87.5385 14.1074C87.06 14.0517 86.5149 14.0029 85.9035 13.9611C85.292 13.9193 84.747 13.8984 84.2683 13.8984C83.5505 13.8984 82.9656 14.0238 82.5136 14.2746C82.0617 14.5253 81.7027 14.8803 81.4369 15.34C81.1709 15.7997 80.9849 16.3428 80.8785 16.9696C80.772 17.5963 80.7189 18.2717 80.7189 18.996V22.2551C80.7189 23.0071 80.772 23.6966 80.8785 24.3233C80.9849 24.9501 81.1709 25.4932 81.4369 25.9529C81.7027 26.4124 82.0617 26.7676 82.5136 27.0183C82.9656 27.2691 83.5505 27.3945 84.2683 27.3945C84.933 27.3945 85.5512 27.3665 86.1227 27.3109C86.6944 27.2552 87.1663 27.1994 87.5383 27.1437V14.1078L87.5385 14.1074Z" fill="#105D6B"/>
<path d="M113.805 31.5305C113.805 32.004 113.54 32.2964 113.008 32.4079C112.689 32.4915 112.27 32.5612 111.752 32.6168C111.233 32.6725 110.675 32.7283 110.077 32.784C109.479 32.8396 108.867 32.8814 108.242 32.9094C107.617 32.9371 107.039 32.9511 106.507 32.9511C105.231 32.9511 104.002 32.8396 102.819 32.617C101.636 32.3942 100.599 31.9554 99.708 31.3008C98.8173 30.6462 98.1062 29.7339 97.5744 28.5642C97.0427 27.3942 96.7769 25.8623 96.7769 23.9681V1.14534C96.7769 0.92252 96.8566 0.727437 97.0162 0.560278C97.1757 0.393119 97.3617 0.30954 97.5746 0.30954H102.799C103.012 0.30954 103.198 0.393119 103.357 0.560278C103.517 0.727437 103.597 0.92252 103.597 1.14534V23.9681C103.597 25.0544 103.789 25.7996 104.175 26.2034C104.56 26.6073 105.218 26.8092 106.149 26.8092H113.008C113.221 26.8092 113.407 26.8928 113.567 27.0599C113.726 27.2271 113.806 27.422 113.806 27.645V31.5307L113.805 31.5305Z" fill="#12A7B5"/>
<path d="M169.139 22.2549C169.139 25.5419 168.315 28.1461 166.666 30.0681C165.018 31.99 162.506 32.951 159.129 32.951C158.73 32.951 158.232 32.9233 157.634 32.8674C157.035 32.8118 156.444 32.7421 155.859 32.6585V39.8868C155.859 40.1096 155.779 40.3047 155.62 40.4718C155.46 40.639 155.274 40.7226 155.061 40.7226H150.236C150.023 40.7226 149.831 40.639 149.658 40.4718C149.485 40.3047 149.398 40.1098 149.398 39.8868V10.5975C149.398 10.2633 149.472 10.0126 149.618 9.84544C149.764 9.67828 150.103 9.52499 150.635 9.38575C151.778 9.07936 153.094 8.82178 154.583 8.61283C156.072 8.40388 157.587 8.29941 159.129 8.29941C162.373 8.29941 164.852 9.23265 166.567 11.0988C168.282 12.965 169.139 15.5972 169.139 18.9955V22.2545L169.139 22.2549ZM162.678 19.0238C162.678 18.2718 162.625 17.5893 162.519 16.9835C162.412 16.3707 162.226 15.8345 161.96 15.3748C161.695 14.9221 161.336 14.5671 160.884 14.3164C160.432 14.0656 159.847 13.9403 159.129 13.9403C158.464 13.9403 157.846 13.9612 157.274 14.003C156.703 14.0447 156.231 14.0936 155.859 14.1492V27.1434C156.337 27.199 156.883 27.2549 157.494 27.3105C158.105 27.3662 158.65 27.3941 159.129 27.3941C159.847 27.3941 160.432 27.2617 160.884 26.9971C161.336 26.7325 161.695 26.3703 161.961 25.9178C162.226 25.4581 162.412 24.915 162.519 24.2884C162.625 23.6685 162.678 22.9931 162.678 22.2688V19.0238H162.678Z" fill="#12A7B5"/>
<path d="M134.32 22.0853C134.32 23.7565 134.1 25.2607 133.661 26.5978C133.223 27.9349 132.585 29.0701 131.747 30.0031C130.91 30.9363 129.873 31.6605 128.637 32.1758C127.4 32.6911 125.971 32.9487 124.349 32.9487C122.728 32.9487 121.299 32.6911 120.062 32.1758C118.826 31.6605 117.783 30.9363 116.932 30.0031C116.081 29.0701 115.436 27.9349 114.998 26.5978C114.559 25.2607 114.34 23.7567 114.34 22.0853V19.1606C114.34 17.4894 114.559 15.9851 114.998 14.648C115.436 13.3109 116.081 12.176 116.932 11.2427C117.783 10.3097 118.826 9.58539 120.062 9.07004C121.299 8.5547 122.727 8.29712 124.349 8.29712C125.971 8.29712 127.4 8.5547 128.637 9.07004C129.233 9.3185 129.782 9.6154 130.285 9.96093C130.01 10.2143 129.749 10.4854 129.503 10.7739C128.599 11.8363 127.914 13.1284 127.448 14.6503C127.347 14.9784 127.258 15.3153 127.179 15.661C126.603 14.5958 125.66 14.063 124.35 14.063C123.193 14.063 122.309 14.4877 121.704 15.3374C121.099 16.187 120.8 17.4614 120.8 19.1604V22.0851C120.8 23.7842 121.1 25.0656 121.704 25.929C122.309 26.7925 123.193 27.2243 124.35 27.2243C126.576 27.2243 127.743 25.6724 127.851 22.5687C127.847 22.4091 127.844 22.2479 127.844 22.0851V19.1604C127.844 18.9983 127.846 18.838 127.851 18.679L127.852 18.6179L127.853 18.6097L127.855 18.5413V18.5406L127.857 18.4716L127.857 18.465L127.86 18.4028L127.86 18.3888L127.863 18.3343L127.864 18.313L127.866 18.2659L127.867 18.2374L127.869 18.1979L127.871 18.1622L127.873 18.1301L127.874 18.1247L127.882 17.9948L127.885 17.9378L127.886 17.9276L127.891 17.8636L127.891 17.8605L127.896 17.7937L127.896 17.7895L127.902 17.727L127.907 17.6634L127.907 17.6605L127.909 17.6423L127.913 17.5944L127.916 17.5689L127.919 17.5283L127.92 17.5215L127.926 17.4624L127.93 17.4231L127.933 17.3967L127.933 17.3949L127.939 17.3313L127.945 17.2781L127.947 17.266L127.953 17.2059L127.954 17.2008L127.962 17.136L127.962 17.1341L127.97 17.0713L127.971 17.0625L127.978 17.0069L127.98 16.9911L127.986 16.9425L127.989 16.9199L127.995 16.8783L127.999 16.849L128.004 16.8144L128.009 16.7784L128.013 16.7506L128.02 16.7079L128.023 16.6872L128.03 16.6378L128.032 16.6239L128.041 16.5681L128.042 16.561L128.053 16.4984V16.498L128.063 16.4353L128.064 16.429L128.074 16.373L128.077 16.3599L128.085 16.3107L128.089 16.2909L128.097 16.2486L128.102 16.2224L128.108 16.1867L128.115 16.154L128.12 16.1251L128.128 16.0858L128.132 16.0636L128.142 16.0178L128.145 16.0022L128.158 15.941L128.17 15.8825L128.17 15.8801L128.184 15.8193L128.185 15.8151L128.197 15.7587L128.199 15.748L128.211 15.6983L128.22 15.6607L128.23 15.6149L128.239 15.5784L128.24 15.5725L128.251 15.5298L128.253 15.5186L128.262 15.4827L128.268 15.4591L128.271 15.4474L128.283 15.3999L128.296 15.3514L128.299 15.3408L128.313 15.2863L128.314 15.2819L128.33 15.2232L128.331 15.2213L128.346 15.1647L128.348 15.1565L128.363 15.1066L128.367 15.0921L128.379 15.0484L128.385 15.0277L128.396 14.9905L128.404 14.9637L128.406 14.9571L128.42 14.91L128.423 14.8999L128.431 14.8752L128.443 14.8363L128.448 14.8178L128.462 14.773L128.466 14.7607L128.482 14.71L128.484 14.7039L128.503 14.6473C128.942 13.3102 129.586 12.1752 130.437 11.242L130.447 11.2313L130.457 11.2207L130.476 11.1994L130.477 11.1985L130.486 11.1888L130.496 11.1781L130.506 11.1675L130.516 11.1569L130.517 11.1552L130.526 11.1464L130.536 11.1358L130.546 11.1253L130.555 11.1147L130.558 11.112L130.565 11.1043L130.584 11.0853L130.585 11.0834L130.595 11.0729L130.599 11.0693L130.606 11.0625L130.616 11.052L130.626 11.0418L130.636 11.0313L130.64 11.0269L130.646 11.0211L130.656 11.0108L130.666 11.0005L130.677 10.9903L130.682 10.985L130.687 10.98L130.697 10.9698L130.707 10.9595L130.717 10.9493L130.723 10.9432L130.727 10.939L130.738 10.9289L130.748 10.9187L130.758 10.9084L130.765 10.9016L130.769 10.8983L130.779 10.8883L130.8 10.8681L130.808 10.8605L130.81 10.8581L130.821 10.848L130.831 10.8379L130.841 10.8281L130.85 10.8197L130.852 10.8182L130.862 10.8083L130.873 10.7984L130.883 10.7886L130.893 10.7794L130.894 10.7787L130.904 10.7688L130.915 10.7589L130.925 10.749L130.936 10.7392V10.739L130.946 10.7293L130.957 10.7194L130.967 10.7097L130.978 10.6998L130.979 10.6989L130.989 10.6902L131 10.6805L131.01 10.6708L131.021 10.6611L131.023 10.6594L131.032 10.6514L131.042 10.6419L131.053 10.6322L131.064 10.6227L131.067 10.6201L131.075 10.613L131.085 10.6035L131.096 10.594C131.81 9.96681 132.633 9.45945 133.567 9.06909C134.803 8.55375 136.232 8.29617 137.854 8.29617C139.476 8.29617 140.905 8.55375 142.141 9.06909C143.378 9.58444 144.414 10.3087 145.252 11.2418C146.09 12.175 146.728 13.31 147.166 14.6471C147.605 15.9842 147.824 17.4882 147.824 19.1596V22.0843C147.824 23.7555 147.605 25.2598 147.166 26.5969C146.728 27.9339 146.09 29.0691 145.252 30.0022C144.415 30.9354 143.378 31.6595 142.141 32.1748C140.905 32.6902 139.476 32.9478 137.854 32.9478C136.233 32.9478 134.803 32.6902 133.567 32.1748C132.966 31.9243 132.411 31.6244 131.901 31.275C132.14 31.0484 132.368 30.8081 132.584 30.5542C133.488 29.4918 134.173 28.1997 134.639 26.6778C134.757 26.2946 134.859 25.8992 134.947 25.4919C135.027 25.6477 135.114 25.7932 135.209 25.9284C135.814 26.7919 136.698 27.2237 137.854 27.2237C140.194 27.2237 141.364 25.5105 141.364 22.0845V19.1598C141.364 15.7615 140.194 14.0624 137.854 14.0624C136.698 14.0624 135.814 14.4871 135.209 15.3368C134.662 16.1048 134.365 17.2194 134.313 18.6813C134.317 18.8392 134.32 18.9987 134.32 19.1598V22.0845V22.0853Z" fill="#12A7B5"/>
</svg>
