<svg width="65" height="49" viewBox="0 0 65 49" fill="none" xmlns="http://www.w3.org/2000/svg">
<path fill-rule="evenodd" clip-rule="evenodd" d="M44.7577 5.55273C46.9911 7.96387 48.4053 11.078 48.7819 14.4147C52.934 14.6959 56.8318 16.6087 59.696 19.7707C62.5601 22.9328 64.1796 27.111 64.2305 31.4699C64.1717 36.0601 62.3778 40.4385 59.2422 43.6449C56.1065 46.8512 51.8851 48.6238 47.5038 48.5739H12.3301C9.09919 48.6096 5.98665 47.3012 3.67518 44.9358C1.36371 42.5705 0.0420205 39.3411 0 35.9562C0.00381039 33.5965 0.646227 31.2862 1.8527 29.2936C3.05918 27.3009 4.78025 25.7076 6.81619 24.6984C6.67151 23.9744 6.59749 23.2369 6.59527 22.4973C6.63729 19.1123 7.95898 15.883 10.2704 13.5177C12.5819 11.1523 15.6945 9.84392 18.9254 9.87959C19.5856 9.8817 20.2444 9.94494 20.894 10.0686C22.1813 6.9912 24.3993 4.4431 27.2058 2.8174C30.0124 1.1917 33.2516 0.57874 36.4236 1.07308C39.5956 1.56742 42.5243 3.14159 44.7577 5.55273ZM12.3301 45.77H47.5038C51.1755 45.8205 54.7165 44.3435 57.3504 41.6628C59.9842 38.9822 61.496 35.3166 61.5542 31.4699C61.496 27.6232 59.9842 23.9576 57.3504 21.277C54.7165 18.5963 51.1755 17.1193 47.5038 17.1698C47.1489 17.1698 46.8085 17.0221 46.5576 16.7592C46.3066 16.4963 46.1657 16.1397 46.1657 15.7679C46.0735 12.8535 45.0094 10.0652 43.1583 7.8877C41.3073 5.71017 38.7864 4.28117 36.034 3.84912C33.2815 3.41708 30.4716 4.00932 28.0928 5.52289C25.7139 7.03646 23.9166 9.37561 23.0133 12.1337C22.909 12.474 22.6841 12.7594 22.3849 12.9311C22.0857 13.1028 21.735 13.1477 21.4052 13.0564C20.5973 12.8219 19.764 12.6968 18.9256 12.6841C16.4044 12.6479 13.9723 13.6607 12.1626 15.5003C10.3529 17.34 9.31333 19.8564 9.2718 22.4979C9.28539 23.3897 9.42057 24.2748 9.67325 25.1266C9.7666 25.4656 9.73458 25.829 9.58357 26.1445C9.43256 26.4599 9.17366 26.7041 8.85845 26.8284C7.05827 27.501 5.4993 28.7377 4.39327 30.3707C3.28725 32.0037 2.68777 33.9539 2.67627 35.9562C2.7178 38.5977 3.75737 41.1141 5.56704 42.9537C7.37672 44.7934 9.80882 45.8061 12.3301 45.77ZM23.2795 31.4937C23.8621 31.278 24.3841 30.9132 24.7979 30.4324H24.7983C24.9146 30.2894 25.0571 30.1722 25.2174 30.088C25.3776 30.0038 25.5525 29.9542 25.7314 29.9421C25.9104 29.9301 26.0898 29.9558 26.2591 30.0179C26.4283 30.0799 26.584 30.1769 26.7167 30.3032C26.8495 30.4295 26.9567 30.5825 27.0319 30.753C27.1071 30.9236 27.1489 31.1082 27.1547 31.296C27.1605 31.4837 27.1302 31.6708 27.0656 31.8461C27.001 32.0214 26.9035 32.1812 26.7788 32.3162C25.9141 33.3176 24.7802 34.0209 23.5264 34.3336C22.2726 34.6462 20.9578 34.5535 19.7553 34.0676C18.5528 33.5818 17.5191 32.7256 16.7903 31.6119C16.0616 30.4982 15.672 29.1792 15.673 27.8289C15.674 26.4786 16.0655 25.1604 16.7958 24.0478C17.5262 22.9353 18.5612 22.0807 19.7644 21.5968C20.9676 21.1129 22.2826 21.0223 23.5359 21.3369C24.7892 21.6516 25.9221 22.3568 26.7853 23.3595C26.9044 23.4963 26.9965 23.6565 27.0562 23.8308C27.1159 24.0052 27.142 24.1902 27.1331 24.3751C27.1242 24.5601 27.0804 24.7414 27.0042 24.9085C26.928 25.0756 26.821 25.2253 26.6893 25.3488C26.5576 25.4723 26.4038 25.5673 26.2369 25.6282C26.0699 25.6892 25.8931 25.7148 25.7167 25.7038C25.5402 25.6927 25.3676 25.6451 25.2088 25.5637C25.05 25.4824 24.9082 25.3688 24.7915 25.2297C24.445 24.8251 24.021 24.5015 23.5471 24.28C23.0733 24.0585 22.5602 23.9441 22.0414 23.9441C21.4234 23.9445 20.8154 24.1067 20.2725 24.4158C19.7296 24.725 19.269 25.1714 18.9326 25.7144C18.5962 26.2575 18.3946 26.88 18.3462 27.5254C18.2978 28.1708 18.404 28.8187 18.6553 29.4101C18.9066 30.0016 19.2949 30.5179 19.785 30.9121C20.2752 31.3064 20.8515 31.5661 21.4618 31.6677C22.0721 31.7692 22.6969 31.7094 23.2795 31.4937ZM33.9878 20.9831C32.7334 20.9833 31.5072 21.3732 30.4642 22.1035C29.4212 22.8338 28.6084 23.8717 28.1285 25.086C27.6485 26.3003 27.523 27.6364 27.7678 28.9254C28.0127 30.2144 28.6168 31.3984 29.5039 32.3277C30.391 33.257 31.5212 33.8898 32.7515 34.1462C33.9819 34.4025 35.2571 34.2709 36.4161 33.7679C37.575 33.2649 38.5656 32.4131 39.2625 31.3203C39.9594 30.2275 40.3314 28.9428 40.3314 27.6285C40.3298 25.8664 39.6609 24.177 38.4716 22.9311C37.2823 21.6852 35.6697 20.9846 33.9878 20.9831ZM33.9878 31.4699C33.2627 31.4699 32.5538 31.2446 31.9508 30.8225C31.3479 30.4004 30.8779 29.8004 30.6004 29.0985C30.3229 28.3966 30.2503 27.6242 30.3918 26.879C30.5333 26.1339 30.8825 25.4494 31.3952 24.9122C31.908 24.375 32.5613 24.0091 33.2725 23.8609C33.9838 23.7127 34.721 23.7887 35.3909 24.0795C36.0609 24.3702 36.6335 24.8626 37.0364 25.4943C37.4393 26.126 37.6543 26.8687 37.6543 27.6285C37.6532 28.6469 37.2666 29.6233 36.5792 30.3435C35.8919 31.0636 34.9599 31.4687 33.9878 31.4699ZM43.0975 16.7591C42.8465 17.0221 42.5062 17.1698 42.1513 17.1698C41.7964 17.1698 41.456 17.0221 41.2051 16.7591C40.9541 16.4962 40.8131 16.1396 40.8131 15.7678C40.7645 14.0106 40.0531 12.3452 38.8348 11.1365C37.6165 9.92772 35.9906 9.27408 34.3133 9.31874C33.9584 9.31874 33.618 9.17104 33.3671 8.90812C33.1161 8.6452 32.9751 8.2886 32.9751 7.91678C32.9751 7.54495 33.1161 7.18835 33.3671 6.92543C33.618 6.66251 33.9584 6.51481 34.3133 6.51481C36.7002 6.47071 39.0065 7.41993 40.7266 9.15441C42.4466 10.8889 43.4402 13.2671 43.4894 15.7678C43.4894 16.1396 43.3484 16.4962 43.0975 16.7591Z" fill="url(#paint0_linear_22_300)"/>
<defs>
<linearGradient id="paint0_linear_22_300" x1="-4.52327" y1="0.906494" x2="48.7182" y2="64.5741" gradientUnits="userSpaceOnUse">
<stop offset="0.318508" stop-color="#E7A14F"/>
<stop offset="0.595889" stop-color="#9FA594"/>
<stop offset="0.930737" stop-color="#12A7B5"/>
</linearGradient>
</defs>
</svg>
