<svg width="65" height="61" viewBox="0 0 65 61" fill="none" xmlns="http://www.w3.org/2000/svg">
<path d="M55.7097 8.92716C50.2149 3.17046 42.9094 0 35.1386 0C27.368 0 20.0622 3.17046 14.5675 8.9273C9.46722 14.2709 6.49556 21.2495 6.095 28.7349C2.60472 29.6042 0 32.8958 0 36.8149V43.1499C0 44.2388 0.842523 45.1215 1.88175 45.1215H2.01548V49.4851C2.01548 50.5739 2.85801 51.4566 3.89724 51.4566C4.93646 51.4566 5.77899 50.5739 5.77899 49.4851V45.1215H10.0777V49.4851C10.0777 50.5739 10.9202 51.4566 11.9594 51.4566C12.9986 51.4566 13.8412 50.5739 13.8412 49.4851V45.1215H13.9752C15.0144 45.1215 15.8569 44.2388 15.8569 43.1499V36.8149C15.8569 32.9343 13.3035 29.6675 9.86465 28.7597C10.7137 14.9261 21.7241 3.94304 35.1386 3.94304C49.1047 3.94304 60.467 15.8473 60.467 30.4797C60.467 44.4493 50.1116 55.9324 37.0203 56.9439V52.3739C43.5543 51.4119 48.5983 45.5173 48.5983 38.4109C48.5983 29.9746 45.305 22.4399 42.5422 17.6047C39.5704 12.4037 36.6151 9.18188 36.4908 9.04743C36.1363 8.66364 35.6484 8.44703 35.1387 8.44703C34.629 8.44703 34.141 8.66364 33.7866 9.04743C33.6623 9.18188 30.7071 12.4037 27.7354 17.6047C24.9726 22.4399 21.6793 29.9746 21.6792 38.4111C21.6794 45.5173 26.7234 51.4119 33.2571 52.3739V58.9878C33.2571 60.0766 34.0996 60.9593 35.1388 60.9593C42.9096 60.9593 50.2153 57.7889 55.71 52.032C61.2048 46.2752 64.2305 38.6211 64.2305 30.4797C64.2305 22.3382 61.2044 14.684 55.7097 8.92716ZM12.0934 36.8149V41.1784H3.76351V36.8149C3.76351 34.4088 5.63196 32.4512 7.92833 32.4512C10.2251 32.4512 12.0934 34.4088 12.0934 36.8149ZM27.4548 27.2742L33.2568 33.3532V38.9739L26.2176 31.5986C26.5517 30.0922 26.9761 28.6447 27.4548 27.2742ZM44.0597 31.5987L37.0203 38.9739V33.3532L42.8224 27.2741C43.3011 28.6447 43.7255 30.0922 44.0597 31.5987ZM37.0203 48.3757V44.5501L44.7659 36.4351C44.8103 37.0875 44.8348 37.7464 44.8348 38.4109C44.8348 43.3378 41.4691 47.4551 37.0203 48.3757ZM41.2359 23.3601L37.0203 27.777V15.9799C37.7589 17.0552 38.5623 18.3101 39.3621 19.7162C39.9748 20.7935 40.6165 22.017 41.2359 23.3601ZM33.2568 15.9801V27.777L29.0412 23.3602C29.6607 22.0171 30.3024 20.7935 30.9152 19.7161C31.7151 18.3099 32.5183 17.0551 33.2568 15.9801ZM25.4424 38.4109C25.4424 37.7463 25.4669 37.0874 25.5113 36.4348L33.2568 44.5501V48.3757C28.8083 47.4551 25.4427 43.3378 25.4424 38.4109Z" fill="url(#paint0_linear_21_299)"/>
<defs>
<linearGradient id="paint0_linear_21_299" x1="-4.52327" y1="1.12041e-07" x2="64.4993" y2="64.5431" gradientUnits="userSpaceOnUse">
<stop offset="0.318508" stop-color="#E7A14F"/>
<stop offset="0.595889" stop-color="#9FA594"/>
<stop offset="0.930737" stop-color="#12A7B5"/>
</linearGradient>
</defs>
</svg>
