<svg width="58" height="60" viewBox="0 0 58 60" fill="none" xmlns="http://www.w3.org/2000/svg">
<path fill-rule="evenodd" clip-rule="evenodd" d="M3.77841 23.516C3.56489 23.516 3.35136 23.4732 3.14957 23.3871C2.73904 23.2126 2.412 22.874 2.23979 22.4466L0.1319 17.2137C-0.226881 16.3234 0.171474 15.2973 1.02124 14.9214C1.87101 14.5456 2.85037 14.9629 3.20871 15.8532L3.77276 17.2529C8.05551 6.85178 17.8778 0 28.8148 0C41.2495 0 52.1085 8.80917 55.2219 21.4228C55.4528 22.3583 54.9157 23.3128 54.0229 23.5547C53.8829 23.5926 53.742 23.6108 53.6037 23.6108C52.8605 23.6108 52.1825 23.0873 51.9881 22.2986C49.2561 11.2299 39.7269 3.49924 28.8148 3.49924C19.2708 3.49924 10.6931 9.44431 6.90176 18.4858L8.12379 17.9459C8.97399 17.57 9.95292 17.9869 10.3117 18.8772C10.6705 19.7675 10.2721 20.7936 9.42279 21.1695L4.4277 23.3784C4.22026 23.47 3.99934 23.516 3.77841 23.516ZM54.7618 36.9184L56.8697 42.1513C57.228 43.0416 56.8301 44.0677 55.9803 44.4431C55.7685 44.537 55.548 44.5816 55.3319 44.5816C54.6805 44.5816 54.0616 44.1798 53.7924 43.5118L53.3006 42.2903C49.0569 52.7898 39.1855 59.7191 28.1868 59.7191C15.7521 59.7191 4.89302 50.9099 1.78011 38.2967C1.54919 37.3613 2.08584 36.4067 2.97866 36.1648C3.87104 35.9233 4.78256 36.4851 5.01349 37.4205C7.74544 48.4896 17.2746 56.2203 28.1868 56.2203C37.8821 56.2203 46.5798 50.0847 50.2759 40.8008L48.8773 41.4191C48.028 41.795 47.0482 41.3781 46.6899 40.4878C46.3311 39.5975 46.729 38.571 47.5788 38.1955L52.5739 35.9866C52.9818 35.8062 53.4419 35.803 53.852 35.9775C54.2621 36.1525 54.5896 36.491 54.7618 36.9184ZM32.8427 11.6642H24.1589C23.2365 11.6642 22.4889 12.4474 22.4889 13.4133V16.5626H21.1947C19.6987 16.5626 18.481 17.8498 18.481 19.4318V45.1867C18.481 46.7687 19.6987 48.0558 21.1947 48.0558H35.8068C37.3029 48.0558 38.5205 46.7687 38.5205 45.1867V19.4318C38.5205 17.8498 37.3029 16.5626 35.8068 16.5626H34.5126V13.4133C34.5126 12.4474 33.7646 11.6642 32.8427 11.6642ZM35.1806 20.0619V44.5561H21.8209V20.0619H24.1589C25.0813 20.0619 25.8288 19.2787 25.8288 18.3123V15.1629H31.1727V18.3123C31.1727 19.2787 31.9203 20.0619 32.8427 20.0619H35.1806ZM29.6016 28.6397H30.8532C31.4956 28.6397 32.0809 29.0256 32.3588 29.633C32.6367 30.2399 32.558 30.9598 32.1557 31.4847L28.4082 36.3779C28.0782 36.8084 27.5937 37.0326 27.1044 37.0326C26.7378 37.0326 26.3686 36.9064 26.0602 36.6476C25.3414 36.0425 25.2257 34.9412 25.8032 34.1876L27.3719 32.139H26.1485C25.5079 32.139 24.9239 31.7554 24.6451 31.1512C24.3659 30.547 24.4416 29.8294 24.839 29.3031L28.3413 24.6706C28.914 23.9133 29.9647 23.7853 30.6875 24.3854C31.4103 24.9855 31.5321 26.0858 30.9598 26.8436L29.6016 28.6397Z" fill="url(#paint0_linear_18_84)"/>
<defs>
<linearGradient id="paint0_linear_18_84" x1="-4.01418" y1="1.09761e-07" x2="62.8338" y2="56.6263" gradientUnits="userSpaceOnUse">
<stop offset="0.318508" stop-color="#E7A14F"/>
<stop offset="0.595889" stop-color="#9FA594"/>
<stop offset="0.930737" stop-color="#12A7B5"/>
</linearGradient>
</defs>
</svg>
