<svg width="65" height="49" viewBox="0 0 65 49" fill="none" xmlns="http://www.w3.org/2000/svg">
<path fill-rule="evenodd" clip-rule="evenodd" d="M63.9366 24.7325L45.8718 5.80594C45.8356 5.76808 45.8085 5.75021 45.7784 5.73129C45.6058 5.58723 45.3931 5.49786 45.1622 5.49786H42.5669L45.8718 2.03535C46.1588 1.73462 46.2451 1.28249 46.0896 0.889236C45.935 0.495987 45.5687 0.240479 45.1622 0.240479H19.0686C18.8016 0.240479 18.5467 0.350891 18.359 0.548569L0.294215 19.4751C0.00718462 19.7758 -0.0791251 20.228 0.0764331 20.6212C0.231991 21.0145 0.598306 21.27 1.00376 21.27H3.59907L0.294215 24.7325C0.00718462 25.0332 -0.0791251 25.4854 0.0764331 25.8786C0.231991 26.2719 0.598306 26.5274 1.00376 26.5274H3.01096V47.5569C3.01096 48.1384 3.45957 48.6084 4.01456 48.6084H60.2162C60.7712 48.6084 61.2198 48.1384 61.2198 47.5569V26.5274H63.2271C63.6325 26.5274 63.9988 26.2719 64.1544 25.8786C64.3099 25.4854 64.2236 25.0332 63.9366 24.7325ZM39.4357 5.80489L39.4337 5.80699L35.7143 9.70377H29.5201L36.5453 2.34343H42.7395L39.4357 5.80489ZM11.4553 19.1671L18.4805 11.8067H24.6747L17.6495 19.1671H11.4553ZM33.7071 2.34343L26.6819 9.70377H20.4877L27.5129 2.34343H33.7071ZM27.5129 11.8067H33.7071L26.6819 19.1671H20.4877L27.5129 11.8067ZM19.4841 2.34343H24.6747L17.6495 9.70377H12.4589L19.4841 2.34343ZM10.4517 11.8067H15.6423L8.61708 19.1671H3.42645L10.4517 11.8067ZM6.43726 21.27H27.0974C27.3644 21.27 27.6183 21.1585 27.8069 20.9619L40.5597 7.60081H42.7395L26.6819 24.4244H3.42645L6.43726 21.27ZM5.01817 26.5274H27.0974H29.1046V46.5054H5.01817V26.5274ZM41.1478 46.5054V31.7848H49.1766V46.5054H41.1478ZM60.2162 24.4244C59.6613 24.4244 59.2126 24.8944 59.2126 25.4759V46.5054H51.1838V30.7333C51.1838 30.1518 50.7352 29.6818 50.1802 29.6818H40.1442C39.5892 29.6818 39.1406 30.1518 39.1406 30.7333V46.5054H31.1118V25.4759C31.1118 24.8944 30.6632 24.4244 30.1082 24.4244H29.5201L45.1622 8.03612L60.8044 24.4244H60.2162ZM45.1622 16.0126C42.3953 16.0126 40.1442 18.371 40.1442 21.27C40.1442 24.1689 42.3953 26.5273 45.1622 26.5273C47.9292 26.5273 50.1802 24.1689 50.1802 21.27C50.1802 18.371 47.9292 16.0126 45.1622 16.0126ZM45.1622 24.4244C43.5023 24.4244 42.1514 23.0091 42.1514 21.27C42.1514 19.5308 43.5023 18.1155 45.1622 18.1155C46.8222 18.1155 48.173 19.5308 48.173 21.27C48.173 23.0101 46.8232 24.4244 45.1622 24.4244ZM8.02899 29.6818H26.0938C26.6488 29.6818 27.0974 30.1528 27.0974 30.7332V41.248C27.0974 41.8295 26.6488 42.2995 26.0938 42.2995H8.02899C7.47399 42.2995 7.02538 41.8295 7.02538 41.248V30.7332C7.02538 30.1518 7.47399 29.6818 8.02899 29.6818ZM16.0578 31.7847H9.03259V40.1965H16.0578V31.7847ZM18.065 40.1965H25.0902V31.7847H18.065V40.1965Z" fill="url(#paint0_linear_22_301)"/>
<defs>
<linearGradient id="paint0_linear_22_301" x1="-4.52333" y1="0.240479" x2="49.6332" y2="64.0662" gradientUnits="userSpaceOnUse">
<stop offset="0.318508" stop-color="#E7A14F"/>
<stop offset="0.595889" stop-color="#9FA594"/>
<stop offset="0.930737" stop-color="#12A7B5"/>
</linearGradient>
</defs>
</svg>
