<svg width="21" height="22" viewBox="0 0 21 22" fill="none" xmlns="http://www.w3.org/2000/svg">
<path d="M15.6479 0.382324H5.21597C2.34744 0.382324 0 2.72976 0 5.59829V16.0307C0 18.8985 2.34744 21.2467 5.21597 21.2467H15.6479C18.5164 21.2467 20.8639 18.8985 20.8639 16.0307V5.59829C20.8639 2.72976 18.5164 0.382324 15.6479 0.382324ZM19.1251 16.0307C19.1251 17.9476 17.5658 19.508 15.6479 19.508H5.21597C3.29884 19.508 1.73874 17.9476 1.73874 16.0307V5.59829C1.73874 3.68091 3.29884 2.12106 5.21597 2.12106H15.6479C17.5658 2.12106 19.1251 3.68091 19.1251 5.59829V16.0307Z" fill="#12A7B5"/>
<path d="M16.0834 6.46736C16.8035 6.46736 17.3874 5.88354 17.3874 5.16337C17.3874 4.44319 16.8035 3.85938 16.0834 3.85938C15.3632 3.85938 14.7794 4.44319 14.7794 5.16337C14.7794 5.88354 15.3632 6.46736 16.0834 6.46736Z" fill="#12A7B5"/>
<path d="M10.4319 5.59814C7.55057 5.59814 5.21592 7.93305 5.21592 10.8141C5.21592 13.6941 7.55057 16.0306 10.4319 16.0306C13.3124 16.0306 15.6479 13.6941 15.6479 10.8141C15.6479 7.93305 13.3124 5.59814 10.4319 5.59814ZM10.4319 14.2918C8.51161 14.2918 6.95466 12.7349 6.95466 10.8141C6.95466 8.89332 8.51161 7.33689 10.4319 7.33689C12.3522 7.33689 13.9091 8.89332 13.9091 10.8141C13.9091 12.7349 12.3522 14.2918 10.4319 14.2918Z" fill="#12A7B5"/>
</svg>
