<svg width="21" height="22" viewBox="0 0 21 22" fill="none" xmlns="http://www.w3.org/2000/svg">
<path d="M20.8638 21.2632V13.6218C20.8638 9.86634 20.0554 6.99756 15.6739 6.99756C13.5615 6.99756 12.1532 8.14507 11.5794 9.24042H11.5272V7.3366H7.38055V21.2632H11.7098V14.3521C11.7098 12.5265 12.0488 10.7791 14.2917 10.7791C16.5085 10.7791 16.5346 12.8394 16.5346 14.4564V21.2371H20.8638V21.2632Z" fill="#12A7B5"/>
<path d="M0.339005 7.33643H4.66826V21.2631H0.339005V7.33643Z" fill="#12A7B5"/>
<path d="M2.50366 0.399414C1.12143 0.399414 0 1.52085 0 2.90308C0 4.28531 1.12143 5.43282 2.50366 5.43282C3.8859 5.43282 5.00733 4.28531 5.00733 2.90308C5.00733 1.52085 3.8859 0.399414 2.50366 0.399414Z" fill="#12A7B5"/>
</svg>
