<svg width="61" height="59" viewBox="0 0 61 59" fill="none" xmlns="http://www.w3.org/2000/svg">
<path fill-rule="evenodd" clip-rule="evenodd" d="M11.6687 16.2858L22.5463 22.8612C22.6902 22.9471 22.8529 22.9923 23.0185 22.9925C23.1838 22.9919 23.3461 22.9459 23.4892 22.8591C23.6322 22.7723 23.7511 22.6477 23.8338 22.4978L29.2094 12.7258C29.2793 12.6135 29.3267 12.4875 29.3486 12.3554C29.3705 12.2234 29.3664 12.088 29.3368 11.9576C29.3071 11.8272 29.2524 11.7046 29.1759 11.5971C29.0995 11.4896 29.003 11.3995 28.8922 11.3324C28.7815 11.2653 28.6588 11.2225 28.5318 11.2067C28.4047 11.1908 28.2759 11.2023 28.1533 11.2404C28.0306 11.2784 27.9166 11.3422 27.8182 11.428C27.7199 11.5137 27.6392 11.6195 27.5812 11.739L22.6766 20.662L13.4372 15.0733L20.3295 2.54174C20.4163 2.38575 20.5406 2.25631 20.69 2.16629C20.8395 2.07628 21.0088 2.02883 21.1811 2.02867L25.2717 2.01949L33.1521 16.3225L31.7882 17.1492C31.6421 17.2017 31.511 17.2918 31.4068 17.4113C31.3027 17.5308 31.2288 17.6757 31.192 17.8329C31.1902 17.8648 31.1902 17.8968 31.192 17.9287C31.1885 18.0323 31.1885 18.136 31.192 18.2397C31.2207 18.4344 31.3042 18.6157 31.4318 18.7605C31.5594 18.9052 31.7254 19.0067 31.9085 19.0519L43.8519 21.9886C44.0822 22.0449 44.3242 22.0088 44.5304 21.8873C44.7365 21.7659 44.8917 21.5679 44.9653 21.3325L49.0333 8.70648C49.0948 8.51639 49.0994 8.31118 49.0466 8.11825C48.9939 7.92531 48.8862 7.75382 48.738 7.62665C48.5899 7.49947 48.4082 7.42266 48.2172 7.40647C48.0263 7.39027 47.8352 7.43546 47.6694 7.536L45.6429 8.7616L41.104 0.494702C41.0215 0.344215 40.9026 0.219217 40.7592 0.13235C40.6158 0.0454828 40.453 -0.000172537 40.2874 0L21.1874 0.044616C20.6847 0.0459453 20.1911 0.185084 19.7556 0.448205C19.3201 0.711325 18.9579 1.08927 18.705 1.54447L11.3243 14.9355C11.2621 15.0478 11.2216 15.1719 11.2053 15.3006C11.1889 15.4293 11.197 15.5601 11.229 15.6856C11.261 15.811 11.3163 15.9286 11.3918 16.0316C11.4672 16.1346 11.5613 16.221 11.6687 16.2858ZM39.7376 1.98274L44.4744 10.6052C44.5364 10.7176 44.6189 10.8161 44.7172 10.8951C44.8155 10.974 44.9277 11.0319 45.0474 11.0654C45.1671 11.0989 45.2919 11.1074 45.4147 11.0904C45.5375 11.0733 45.6559 11.0311 45.7632 10.9661L46.4432 10.5541L43.4624 19.83L34.6852 17.6754L34.9169 17.535C35.1329 17.4036 35.2904 17.1879 35.355 16.9351C35.4195 16.6822 35.3858 16.4129 35.2613 16.1861L27.4522 2.01424L39.7376 1.98274ZM52.3661 21.0059C52.24 20.7803 52.0345 20.6154 51.7938 20.5466C51.674 20.5129 51.5491 20.5042 51.4262 20.5211C51.3033 20.538 51.1847 20.5801 51.0773 20.645L40.206 27.2218C39.9896 27.3532 39.8319 27.5692 39.7673 27.8223C39.7027 28.0754 39.7366 28.3451 39.8616 28.5721L45.2471 38.3335C45.3058 38.4521 45.3867 38.5569 45.4851 38.6417C45.5835 38.7265 45.6973 38.7896 45.8196 38.827C45.9419 38.8643 46.0702 38.8754 46.1967 38.8593C46.3232 38.8432 46.4453 38.8005 46.5555 38.7336C46.6658 38.6666 46.7619 38.577 46.8382 38.47C46.9144 38.3631 46.9691 38.241 46.999 38.1112C47.0289 37.9815 47.0334 37.8467 47.0121 37.7151C46.9909 37.5834 46.9443 37.4577 46.8753 37.3455L41.9582 28.4382L51.1963 22.8495L58.1074 35.3732C58.1932 35.5297 58.2384 35.7071 58.2384 35.8876C58.2384 36.0681 58.1932 36.2455 58.1074 36.402L56.0709 40.1181H40.3074V38.2942C40.3066 38.0968 40.2493 37.9042 40.143 37.7413C40.0367 37.5783 39.8863 37.4525 39.7111 37.3799C39.5359 37.3073 39.344 37.2914 39.1601 37.3341C38.9762 37.3769 38.8087 37.4763 38.6792 37.6197L30.2803 46.9941C30.1197 47.1734 30.0287 47.4089 30.025 47.6547C30.0212 47.9005 30.1051 48.1389 30.2602 48.3234L38.6592 58.3368C38.7477 58.442 38.8566 58.5262 38.9786 58.5839C39.1006 58.6416 39.233 58.6715 39.3668 58.6714C39.4828 58.6691 39.5974 58.6447 39.705 58.5993C39.8834 58.5287 40.0372 58.4031 40.146 58.2392C40.2549 58.0752 40.3138 57.8805 40.315 57.6807V55.2256L49.4141 55.2387C49.5797 55.2386 49.7423 55.1928 49.8857 55.106C50.029 55.0191 50.148 54.8943 50.2307 54.744L59.7494 37.3901C59.9999 36.9336 60.1318 36.4162 60.1318 35.8896C60.1318 35.363 59.9999 34.8456 59.7494 34.3891L52.3661 21.0059ZM48.8592 53.2638L39.3631 53.2507C39.2393 53.2504 39.1166 53.2756 39.0021 53.3251C38.8876 53.3745 38.7835 53.4472 38.6959 53.5389C38.6083 53.6306 38.5388 53.7395 38.4915 53.8593C38.4441 53.9792 38.4198 54.1077 38.42 54.2375V55.0563L32.2328 47.6896L38.42 40.7848V41.1036C38.4203 41.3654 38.5198 41.6164 38.6967 41.8015C38.8735 41.9865 39.1132 42.0904 39.3631 42.0904H54.985L48.8592 53.2638ZM10.7627 54.9615C10.3272 54.6981 9.96548 54.3194 9.71363 53.8635L0.1273 36.5555C0.0439217 36.4052 0 36.2345 0 36.0608C0 35.887 0.0439217 35.7163 0.1273 35.5661L4.69251 27.3175L2.66604 26.0919C2.50024 25.9915 2.36756 25.8406 2.28564 25.6592C2.20372 25.4778 2.17645 25.2746 2.20745 25.0766C2.23845 24.8786 2.32625 24.6952 2.45918 24.5507C2.59211 24.4063 2.76386 24.3077 2.9516 24.268L15.4223 21.6436C15.6522 21.5937 15.8916 21.6361 16.093 21.7625C16.2943 21.8889 16.443 22.09 16.5095 22.3259L20.0589 34.6344C20.115 34.8246 20.1149 35.0281 20.0586 35.2182C20.0022 35.4083 19.8923 35.5761 19.7433 35.6996C19.5943 35.8231 19.4131 35.8965 19.2236 35.9101C19.034 35.9237 18.845 35.877 18.6812 35.776L17.172 34.8653L9.29155 49.1684L11.3456 52.8754C11.4315 53.0318 11.5552 53.1618 11.7043 53.2523C11.8533 53.3429 12.0225 53.3907 12.1947 53.3911H25.9944V42.2137L16.1726 42.2216C16.0459 42.2264 15.9196 42.2044 15.8012 42.157C15.6829 42.1096 15.5748 42.0376 15.4836 41.9454C15.3923 41.8533 15.3198 41.7428 15.2702 41.6206C15.2206 41.4983 15.1951 41.3669 15.1951 41.2341C15.1951 41.1013 15.2206 40.9699 15.2702 40.8477C15.3198 40.7255 15.3923 40.615 15.4836 40.5228C15.5748 40.4307 15.6829 40.3587 15.8012 40.3113C15.9196 40.2638 16.0459 40.2419 16.1726 40.2467L26.9437 40.2388C27.1934 40.2392 27.4328 40.3432 27.6093 40.5282C27.7859 40.7132 27.8852 40.964 27.8856 41.2256V54.3778C27.8856 54.6395 27.7863 54.8905 27.6097 55.0756C27.4331 55.2607 27.1935 55.3646 26.9437 55.3646H12.1947C11.6919 55.364 11.1981 55.225 10.7627 54.9615ZM6.90898 27.085C6.89271 27.2137 6.85242 27.3377 6.79039 27.4501L2.03104 36.0594L8.19815 47.1988L16.0085 33.0269C16.1332 32.8002 16.3388 32.6347 16.58 32.5668C16.8213 32.4989 17.0784 32.5341 17.2948 32.6648L17.559 32.8235L14.9451 23.7588L5.76337 25.6891L6.44596 26.0998C6.55322 26.1648 6.64721 26.2512 6.72257 26.3542C6.79793 26.4572 6.85318 26.5748 6.88516 26.7002C6.91715 26.8256 6.92524 26.9563 6.90898 27.085Z" fill="url(#paint0_linear_18_90)"/>
<defs>
<linearGradient id="paint0_linear_18_90" x1="-4.23463" y1="1.07836e-07" x2="62.049" y2="60.2895" gradientUnits="userSpaceOnUse">
<stop offset="0.318508" stop-color="#E7A14F"/>
<stop offset="0.595889" stop-color="#9FA594"/>
<stop offset="0.930737" stop-color="#12A7B5"/>
</linearGradient>
</defs>
</svg>
